<?xml version="1.0" standalone="no"?>
<!DOCTYPE svg PUBLIC "-//W3C//DTD SVG 20010904//EN"
 "http://www.w3.org/TR/2001/REC-SVG-20010904/DTD/svg10.dtd">
<svg version="1.0" xmlns="http://www.w3.org/2000/svg"
 width="328.000000pt" height="276.000000pt" viewBox="0 0 328.000000 276.000000"
 preserveAspectRatio="xMidYMid meet">
<metadata>
Created by potrace 1.16, written by Peter Selinger 2001-2019
</metadata>
<g transform="translate(0.000000,276.000000) scale(0.100000,-0.100000)"
fill="#fff" stroke="none">
<path d="M500 1465 l0 -905 95 0 94 0 3 -92 3 -93 575 0 575 0 0 205 0 205
-27 3 -28 3 -2 -178 -3 -178 -518 -3 -517 -2 2 842 3 843 515 0 515 0 3 -178
2 -178 28 3 27 3 0 205 0 205 -97 3 -98 3 0 94 0 95 -575 0 -575 0 0 -905z
m1090 780 l0 -65 -447 -2 -448 -3 -3 -777 -2 -778 -65 0 -65 0 0 845 0 845
515 0 515 0 0 -65z"/>
<path d="M1144 1697 c-3 -8 -4 -39 -2 -68 l3 -54 58 -3 c32 -2 57 -7 55 -12
-2 -5 -61 -135 -133 -289 l-130 -281 -42 0 -43 0 0 -65 0 -65 180 0 180 0 0
65 0 65 -56 0 c-31 0 -54 4 -52 8 2 4 14 33 27 65 l25 57 185 0 186 0 25 -57
c14 -31 27 -60 28 -65 2 -4 -24 -8 -57 -8 l-61 0 0 -65 0 -65 190 0 190 0 0
65 0 65 -49 0 -49 0 -165 358 -165 357 -161 3 c-131 2 -162 0 -167 -11z m320
-316 c31 -68 56 -126 56 -127 0 -2 -54 -4 -120 -4 -66 0 -120 3 -120 6 0 18
116 262 121 256 4 -4 32 -63 63 -131z"/>
<path d="M2170 1640 l0 -70 146 0 146 0 -4 -222 c-3 -214 -4 -225 -28 -273
-31 -61 -78 -88 -155 -88 -97 0 -166 60 -182 159 l-6 34 -75 0 -75 0 6 -54
c10 -101 77 -205 157 -246 64 -33 160 -45 236 -31 120 22 195 78 243 180 25
55 26 61 29 299 l3 242 54 0 55 0 0 70 0 70 -275 0 -275 0 0 -70z"/>
</g>
</svg>
